<svg version="1.1" xmlns="http://www.w3.org/2000/svg" viewBox="0 0 250 250"><desc>Created with Snap</desc><defs><linearGradient x1="-267.2" y1="-1041.2" x2="3384.2000000000003" y2="-1041.2" gradientUnits="userSpaceOnUse" id="linearGradientSksbzvosn40i"><stop offset="0%" stop-color="#6252a2"></stop><stop offset="100%" stop-color="#2fbdb6"></stop></linearGradient></defs><g transform="matrix(0.0685,0,0,0.0685,18.2944,148.6211)"><rect x="-267.2" y="-1041.2" width="3651.4" height="1392.4" fill="url('#linearGradientSksbzvosn40i')"></rect><g><g transform="matrix(0.5,0,0,-0.5,0,0)"><path d="M866 147Q853 125 821 85Q790 46 738 7Q686 -31 612 -60Q538 -88 440 -88Q366 -88 301 -66Q236 -43 186 0Q137 43 108 105Q80 168 80 248Q80 304 95 352Q111 400 136 439Q162 478 195 508Q229 538 266 557Q232 578 200 607Q168 637 143 678Q118 719 103 771Q88 824 88 891Q88 959 107 1028Q127 1097 162 1161Q198 1226 248 1281Q298 1337 358 1378Q419 1420 488 1444Q558 1468 633 1468Q703 1468 757 1447Q812 1426 849 1389Q886 1353 905 1303Q924 1254 924 1198Q924 1118 893 1042Q863 966 811 906Q759 847 690 810Q621 774 545 774Q526 774 506 779Q486 784 469 795Q453 807 442 826Q432 845 432 872Q432 883 433 896Q435 909 438 920Q441 931 445 938Q449 946 455 946Q460 946 464 943Q469 940 476 936Q484 932 497 929Q510 926 532 926Q583 926 625 950Q668 975 698 1014Q728 1053 745 1102Q762 1151 762 1200Q762 1256 726 1283Q690 1311 633 1311Q556 1311 487 1274Q418 1238 365 1179Q313 1121 282 1048Q252 975 252 901Q252 844 271 795Q291 746 321 709Q352 673 388 651Q425 630 459 627Q464 629 468 629Q472 629 477 629Q496 629 504 614Q512 600 512 580Q512 563 507 544Q503 526 496 510Q490 495 481 484Q472 474 463 473Q431 469 392 457Q354 445 321 419Q288 394 266 353Q244 313 244 252Q244 213 259 180Q274 147 301 123Q328 100 364 87Q401 74 444 74Q508 74 559 92Q611 110 649 136Q687 162 711 191Q735 220 745 242Q753 260 764 268Q776 276 788 276Q803 276 818 267Q833 258 845 243Q857 229 864 211Q872 194 872 176Q872 160 866 147ZM1214 -57Q1154 -57 1105 -36Q1056 -15 1021 26Q987 68 968 129Q950 191 950 272Q950 390 983 482Q1016 575 1073 641Q1130 708 1205 747Q1280 787 1364 799L1364 1262Q1364 1284 1360 1297Q1357 1310 1353 1317Q1350 1325 1346 1329Q1343 1334 1343 1339Q1343 1345 1349 1349Q1355 1353 1365 1356Q1375 1359 1386 1360Q1398 1362 1409 1362Q1460 1362 1489 1335Q1519 1309 1519 1272L1519 172Q1519 155 1523 138Q1527 122 1535 108Q1544 95 1557 86Q1571 78 1589 78Q1620 78 1642 100Q1665 122 1681 155Q1698 188 1708 226Q1719 265 1726 299Q1732 331 1746 345Q1760 360 1775 360Q1787 360 1800 352Q1813 345 1823 333Q1834 321 1840 306Q1847 291 1847 276Q1847 274 1847 271Q1847 268 1845 262Q1832 211 1809 155Q1787 99 1751 52Q1716 5 1667 -26Q1618 -57 1552 -57Q1499 -57 1459 -35Q1419 -13 1396 23Q1362 -12 1317 -35Q1273 -57 1214 -57ZM1245 78Q1285 78 1314 101Q1344 124 1364 158L1364 664Q1314 655 1267 630Q1221 606 1185 562Q1150 518 1129 450Q1108 383 1108 287Q1108 231 1119 191Q1131 152 1149 127Q1168 102 1193 90Q1218 78 1245 78ZM2298 -57Q2263 -57 2234 -46Q2206 -35 2184 -16Q2163 4 2149 30Q2135 57 2130 88Q2093 23 2043 -18Q1993 -59 1925 -59Q1874 -59 1833 -38Q1793 -17 1765 21Q1737 60 1722 114Q1708 169 1708 236Q1708 317 1719 399Q1731 481 1745 547Q1761 624 1782 696Q1787 709 1789 722Q1792 736 1801 747Q1810 758 1829 765Q1849 772 1890 772Q1928 772 1939 758Q1950 745 1947 727Q1945 709 1935 690Q1926 671 1923 659Q1909 602 1898 555Q1887 508 1879 460Q1872 413 1868 361Q1864 310 1864 246Q1864 162 1888 119Q1913 76 1958 76Q1989 76 2015 99Q2042 122 2063 160Q2085 199 2101 248Q2117 298 2126 352L2126 682Q2126 704 2122 717Q2119 730 2115 737Q2112 745 2108 749Q2105 754 2105 760Q2105 765 2111 769Q2117 773 2127 776Q2137 779 2148 780Q2160 782 2171 782Q2222 782 2251 755Q2281 729 2281 692L2281 172Q2281 165 2282 149Q2283 134 2288 118Q2293 102 2304 90Q2315 78 2335 78Q2366 78 2388 100Q2411 122 2427 155Q2444 188 2454 226Q2465 265 2472 299Q2478 331 2492 345Q2506 360 2521 360Q2533 360 2546 352Q2559 345 2569 333Q2580 321 2586 306Q2593 291 2593 276Q2593 274 2593 271Q2593 268 2591 262Q2577 211 2554 155Q2532 99 2497 52Q2462 5 2413 -26Q2364 -57 2298 -57ZM2807 -57Q2739 -57 2675 -32Q2611 -7 2561 42Q2512 91 2482 163Q2453 235 2453 330Q2453 418 2478 503Q2503 588 2547 654Q2591 721 2652 762Q2714 803 2787 803Q2840 803 2877 781Q2914 760 2937 729Q2960 699 2970 664Q2981 629 2981 602Q2981 582 2970 566Q2960 550 2945 539Q2930 528 2912 522Q2894 517 2880 518Q2866 519 2857 528Q2849 537 2852 555Q2848 568 2844 587Q2841 606 2832 623Q2824 641 2809 653Q2794 666 2768 666Q2740 666 2713 639Q2687 613 2666 567Q2646 521 2633 460Q2621 399 2621 330Q2621 269 2636 222Q2652 175 2680 143Q2708 111 2746 94Q2785 78 2830 78Q2890 78 2934 100Q2979 123 3010 160Q3041 197 3060 243Q3079 289 3088 336Q3095 370 3116 381Q3138 393 3160 387Q3183 381 3199 361Q3216 342 3213 315Q3209 284 3198 244Q3188 204 3168 163Q3148 122 3117 82Q3087 43 3043 12Q2999 -19 2940 -38Q2882 -57 2807 -57ZM3667 78Q3698 78 3720 100Q3743 122 3759 155Q3776 188 3786 226Q3797 265 3804 299Q3811 331 3824 345Q3838 360 3854 360Q3866 360 3878 352Q3891 345 3901 333Q3912 321 3918 306Q3925 291 3925 276Q3925 274 3925 271Q3925 268 3923 262Q3910 211 3887 155Q3865 99 3830 52Q3795 5 3745 -26Q3696 -57 3630 -57Q3576 -57 3536 -34Q3496 -11 3473 27Q3442 -8 3398 -33Q3355 -57 3297 -57Q3237 -57 3191 -33Q3146 -9 3115 32Q3084 74 3068 130Q3053 187 3053 252Q3053 380 3094 482Q3135 584 3203 655Q3271 727 3358 765Q3446 803 3540 803Q3582 803 3608 780Q3634 757 3634 717Q3634 691 3628 680Q3623 670 3608 670Q3594 670 3579 672Q3564 674 3548 674Q3490 674 3430 648Q3370 623 3321 570Q3273 518 3242 437Q3211 357 3211 246Q3211 165 3242 121Q3273 78 3327 78Q3369 78 3397 109Q3425 141 3442 184L3442 500Q3442 515 3440 525Q3439 535 3437 542Q3436 549 3435 554Q3434 560 3434 565Q3434 581 3449 590Q3465 600 3487 600Q3538 600 3568 573Q3598 547 3598 510L3598 172Q3598 155 3602 138Q3606 122 3614 108Q3622 95 3635 86Q3649 78 3667 78ZM3628 963Q3651 961 3679 960Q3703 958 3737 957Q3771 957 3813 956L3813 1303Q3813 1325 3809 1338Q3806 1351 3802 1358Q3799 1366 3795 1370Q3792 1375 3792 1380Q3792 1386 3798 1390Q3804 1394 3814 1397Q3824 1400 3835 1401Q3847 1403 3858 1403Q3909 1403 3938 1376Q3968 1350 3968 1313L3968 954Q4062 954 4166 956Q4271 958 4376 963Q4390 978 4398 974Q4407 970 4409 955Q4412 940 4410 918Q4408 896 4402 875Q4396 855 4385 840Q4375 825 4362 825Q4239 822 4144 821Q4050 821 3968 821L3968 172Q3968 122 3987 100Q4006 78 4038 78Q4069 78 4091 100Q4114 122 4130 155Q4147 188 4157 226Q4168 265 4175 299Q4181 331 4195 345Q4209 360 4224 360Q4236 360 4249 352Q4262 345 4272 333Q4283 321 4289 306Q4296 291 4296 276Q4296 274 4296 271Q4296 268 4294 262Q4281 211 4258 155Q4236 99 4200 52Q4165 5 4116 -26Q4067 -57 4001 -57Q3960 -57 3925 -45Q3891 -32 3866 -5Q3841 23 3827 66Q3813 109 3813 170L3813 821Q3779 821 3752 821Q3726 822 3708 823Q3687 824 3671 825Q3647 825 3628 846Q3610 868 3602 894Q3595 920 3600 941Q3606 963 3628 963ZM4292 985Q4267 985 4244 995Q4222 1005 4205 1022Q4189 1039 4179 1061Q4169 1084 4169 1110Q4169 1137 4179 1160Q4189 1183 4205 1199Q4222 1216 4244 1225Q4267 1235 4292 1235Q4319 1235 4342 1225Q4365 1216 4381 1199Q4398 1183 4407 1160Q4417 1137 4417 1110Q4417 1084 4407 1061Q4398 1039 4381 1022Q4365 1005 4342 995Q4319 985 4292 985ZM4339 692L4339 172Q4339 165 4340 149Q4341 134 4346 118Q4351 102 4362 90Q4373 78 4393 78Q4423 78 4445 100Q4468 122 4484 155Q4501 188 4512 226Q4523 265 4530 299Q4536 330 4548 344Q4561 358 4575 359Q4590 361 4604 352Q4619 343 4630 328Q4642 314 4647 296Q4653 278 4649 262Q4635 211 4612 155Q4590 99 4555 52Q4520 5 4471 -26Q4422 -57 4356 -57Q4315 -57 4283 -42Q4251 -26 4229 0Q4207 26 4195 61Q4184 96 4184 135L4184 682Q4184 711 4179 724Q4175 737 4175 748Q4175 763 4191 772Q4207 782 4229 782Q4280 782 4309 755Q4339 729 4339 692ZM5287 338Q5289 350 5300 358Q5312 366 5327 369Q5342 372 5358 369Q5375 366 5387 355Q5400 345 5405 326Q5411 308 5404 279Q5395 237 5374 200Q5354 164 5323 136Q5292 108 5250 92Q5208 76 5156 76Q5128 76 5103 79Q5079 82 5056 90Q5018 24 4958 -17Q4898 -57 4810 -57Q4732 -57 4676 -27Q4620 4 4583 56Q4546 109 4528 178Q4511 247 4511 324Q4511 437 4537 526Q4564 616 4599 678Q4634 741 4668 774Q4703 807 4720 807Q4740 807 4756 789Q4773 772 4780 748Q4788 725 4784 701Q4781 677 4761 664Q4749 645 4732 620Q4716 595 4701 557Q4687 520 4677 466Q4667 412 4667 336Q4667 271 4678 223Q4690 175 4710 142Q4731 110 4757 94Q4784 78 4814 78Q4858 78 4886 99Q4915 121 4935 156Q4863 218 4825 313Q4788 409 4788 520Q4788 568 4798 611Q4809 655 4829 688Q4850 721 4881 740Q4912 760 4953 760Q4989 760 5021 734Q5053 708 5077 662Q5101 616 5114 553Q5128 490 5128 416Q5128 359 5121 303Q5114 247 5099 195Q5110 191 5119 190Q5129 190 5140 190Q5173 190 5198 202Q5224 214 5242 234Q5260 254 5271 281Q5282 308 5287 338ZM4896 528Q4896 459 4917 397Q4939 335 4974 289Q4980 338 4980 383Q4980 435 4978 479Q4977 524 4971 556Q4966 588 4956 606Q4947 625 4931 625Q4896 625 4896 528ZM5288 33L5288 682Q5288 711 5283 724Q5279 737 5279 748Q5279 763 5295 772Q5311 782 5333 782Q5384 782 5413 755Q5443 729 5443 692L5443 600Q5464 643 5488 680Q5513 717 5541 744Q5570 772 5602 787Q5635 803 5673 803Q5724 803 5757 784Q5790 765 5809 735Q5828 705 5835 668Q5843 631 5843 596L5843 172Q5843 165 5844 149Q5845 134 5850 118Q5855 102 5865 90Q5876 78 5896 78Q5927 78 5949 100Q5972 122 5988 155Q6005 188 6015 226Q6026 265 6033 299Q6039 331 6053 345Q6067 360 6082 360Q6094 360 6107 352Q6120 345 6130 333Q6141 321 6147 306Q6154 291 6154 276Q6154 274 6154 271Q6154 268 6152 262Q6139 211 6116 155Q6094 99 6058 52Q6023 5 5974 -26Q5925 -57 5859 -57Q5818 -57 5786 -42Q5755 -26 5732 0Q5710 26 5698 61Q5687 96 5687 135L5687 551Q5687 575 5686 596Q5685 617 5680 633Q5676 649 5667 658Q5659 668 5644 668Q5622 668 5590 638Q5558 608 5527 560Q5496 512 5472 451Q5449 391 5443 330L5443 31Q5443 16 5442 0Q5442 -15 5436 -28Q5431 -40 5419 -49Q5408 -57 5386 -57Q5371 -57 5353 -54Q5336 -50 5321 -41Q5307 -31 5297 -14Q5288 4 5288 33Z" fill="#ffffff" style=""></path></g></g></g></svg>